<?xml version="1.0" encoding="UTF-8"?>
<svg id="Layer_2" data-name="Layer 2" xmlns="http://www.w3.org/2000/svg" viewBox="0 0 294.92 113.13">
  <defs>
    <style>
      .cls-1 {
        fill: #ffbe06;
      }

      .cls-2 {
        fill: #d61a1a;
      }
    </style>
  </defs>
  <g id="Layer_1-2" data-name="Layer 1">
    <g>
      <path class="cls-2" d="M287.57,20.27l-6.67-3c-1.32-.59-2.36-1.65-2.93-2.99l-2.87-6.73c-1.96-4.59-6.46-7.56-11.45-7.56s-9.35,2.89-11.36,7.35l-2.99,6.67c-.59,1.32-1.65,2.36-2.99,2.93l-6.73,2.87c-3.13,1.34-5.51,3.86-6.7,6.91-2.34.43-4.7,1.2-7.05,2.3-2.31,1.09-4.5,2.51-6.54,4.24-.9-1.03-1.93-2.01-3.11-2.93-3.53-2.8-7.35-4.22-11.34-4.22-3.18,0-6.3.92-9.02,2.67-.67.43-1.32.9-1.96,1.41-.06-.05-.13-.11-.19-.16-3.12-2.6-7.12-3.91-11.9-3.91s-8.43,1.22-11.43,3.62c-1.4-1.79-3.15-3.31-5.21-4.52-2.06-1.21-4.4-2.1-6.96-2.65-2.15-.46-4.46-.69-6.88-.69-3.22,0-6.45.45-9.6,1.35-3.17.9-6.08,2.33-8.68,4.24-.93-.84-1.96-1.59-3.09-2.26-2.06-1.21-4.4-2.1-6.95-2.64-2.15-.46-4.46-.69-6.88-.69-3.22,0-6.45.45-9.6,1.35-3.64,1.03-6.95,2.76-9.81,5.13-1.11.92-2.14,1.93-3.09,3.04-2.88-1.94-6.42-2.93-10.55-2.93-4.49,0-8.27,1.18-11.26,3.51-3.04-2.33-6.87-3.51-11.4-3.51-5.06,0-9.21,1.48-12.33,4.39-.07.07-.13.14-.2.2-.4-.26-.8-.51-1.22-.75-4.43-2.55-9.85-3.84-16.11-3.84-5.49,0-10.33,1.03-14.37,3.08-4.14,2.09-7.52,4.99-10.06,8.62-2.33,3.33-3.98,7.2-4.91,11.5-.78,3.63-1.18,7.52-1.18,11.55,0,11.06,2.61,19.99,7.77,26.55,5.7,7.26,13.98,11.1,23.93,11.1,4.78,0,9.07-.87,12.74-2.59.96-.45,1.88-.95,2.76-1.48,1.48,1.18,3.2,2.13,5.13,2.83,2.31.84,4.87,1.24,7.84,1.24,4.55,0,8.28-.94,11.37-2.86,3.03,1.92,6.73,2.86,11.29,2.86s8.49-1.02,11.59-3.04c.55-.36,1.08-.74,1.58-1.15,3.79,4.5,8.66,8.26,14.4,11.05,7.23,3.52,15.47,5.38,23.83,5.38.27,0,.55,0,.82,0,8.85,0,18.05-2.28,25.24-6.26,4.9-2.71,8.89-6.19,11.82-10.24.52.24,1.04.46,1.6.66,2.31.84,4.87,1.24,7.84,1.24,4.7,0,8.51-1,11.66-3.04.34-.22.67-.45.99-.68.69.56,1.42,1.08,2.18,1.55,2.64,1.62,5.63,2.45,8.87,2.45s6.41-.87,9.74-2.58c1.59-.81,3.01-1.72,4.26-2.71,1.99,1.37,4.15,2.48,6.48,3.3,3.65,1.28,7.64,1.94,11.87,1.94s8.26-.67,11.85-1.98c4.03-1.47,7.54-3.8,10.43-6.93,2.8-3.03,4.92-6.77,6.31-11.15,1.23-3.9,1.86-8.42,1.86-13.45,0-1.11-.04-2.19-.1-3.26,2.92-1.18,5.36-3.45,6.69-6.43l2.99-6.67c.59-1.32,1.65-2.36,2.99-2.93l6.73-2.87c4.55-1.94,7.51-6.39,7.56-11.33.04-4.94-2.84-9.44-7.35-11.47Z"/>
      <g>
        <path class="cls-1" d="M47.01,66.45c-1.29-1.55-2.91-2.64-4.85-3.29-1.2-.37-2.24-.55-3.12-.55-1.52,0-2.84.52-3.95,1.56-1.11,1.04-1.96,2.69-2.56,4.95-.79,2.82-1.8,4.23-3.05,4.23-.42,0-.87-.18-1.35-.55-.49-.37-.92-.98-1.32-1.84-.39-.85-.73-1.95-1-3.29-.28-1.34-.42-2.98-.42-4.92,0-.97.06-2.14.17-3.5.11-1.36.33-2.64.66-3.85.32-1.2.78-2.23,1.39-3.08.6-.85,1.39-1.28,2.36-1.28.55,0,1.07.22,1.56.66.49.44.77,1.4.87,2.88.09,1.89.58,3.16,1.46,3.81.88.65,2.15.86,3.81.62,1.43-.18,2.75-.59,3.95-1.21,1.2-.62,2.21-1.42,3.01-2.39.81-.97,1.37-2.05,1.7-3.26.32-1.2.32-2.49,0-3.88-.65-2.72-2.36-4.88-5.13-6.48-2.77-1.59-6.33-2.39-10.67-2.39-3.79,0-6.94.64-9.46,1.91-2.52,1.27-4.53,2.98-6.03,5.13-1.5,2.15-2.56,4.67-3.19,7.55-.62,2.89-.94,5.97-.94,9.25,0,8.59,1.81,15.2,5.44,19.82,3.63,4.62,8.74,6.93,15.35,6.93,3.19,0,5.89-.52,8.11-1.56,2.22-1.04,4.02-2.37,5.4-3.98,1.39-1.62,2.38-3.42,2.98-5.4.6-1.99.88-3.93.83-5.82-.05-2.96-.72-5.21-2.01-6.76Z"/>
        <path class="cls-1" d="M91.56,75.49c-.51-3.33-.85-6.99-1.04-10.98-.19-3.99-.16-8,.07-12.02.09-1.2.15-2.55.17-4.05.02-1.5-.17-2.92-.59-4.26-.42-1.34-1.17-2.47-2.25-3.39-1.09-.92-2.71-1.39-4.88-1.39s-3.79.48-4.85,1.45c-1.06.97-1.77,2.18-2.11,3.64-.35,1.45-.47,3.05-.38,4.78.09,1.73.18,3.38.28,4.95.09,1.2-.23,2.17-.97,2.91-.74.74-1.73,1.11-2.98,1.11-1.43,0-2.47-.4-3.12-1.21-.65-.81-.97-1.88-.97-3.22l.07-.9v-.42c.09-1.2.15-2.55.17-4.05.02-1.5-.17-2.92-.59-4.26-.42-1.34-1.18-2.47-2.29-3.39-1.11-.92-2.75-1.39-4.92-1.39s-3.85.48-4.88,1.45c-1.04.97-1.73,2.19-2.08,3.67-.35,1.48-.47,3.08-.38,4.82.09,1.73.18,3.38.28,4.95.23,3.09.24,6.69.03,10.77s-.64,8.46-1.28,13.13c-.09.69-.2,1.47-.31,2.32-.12.85-.15,1.72-.1,2.6.05.88.21,1.72.48,2.53.28.81.73,1.54,1.35,2.18.62.65,1.48,1.17,2.56,1.56,1.08.39,2.46.59,4.12.59,2.49,0,4.4-.43,5.72-1.28,1.32-.85,2.24-1.96,2.77-3.33.53-1.36.77-2.91.73-4.64-.05-1.73-.21-3.48-.48-5.23-.09-.42-.16-.85-.21-1.32-.05-.46-.09-.92-.14-1.39-.09-1.11.16-2,.76-2.67.6-.67,1.46-1,2.56-1,1.2,0,2.09.34,2.67,1,.58.67.82,1.56.73,2.67-.09.92-.18,1.83-.28,2.7-.09.88-.21,1.78-.35,2.7-.14,1.02-.27,2.21-.38,3.57-.12,1.36.05,2.66.48,3.88.44,1.22,1.27,2.25,2.49,3.08,1.22.83,3.08,1.25,5.58,1.25s4.33-.43,5.65-1.28c1.32-.85,2.24-1.96,2.77-3.33.53-1.36.77-2.91.73-4.64-.05-1.73-.19-3.48-.42-5.23Z"/>
        <path class="cls-1" d="M107.88,67.69c2.1.86,4.45,1.28,7.03,1.28,1.8,0,3.61-.23,5.44-.69,1.82-.46,3.46-1.18,4.92-2.15,1.46-.97,2.63-2.23,3.53-3.78.9-1.55,1.35-3.38,1.35-5.51,0-1.94-.38-3.38-1.14-4.33-.76-.95-1.93-1.53-3.5-1.77-1.43-.23-2.82-.14-4.16.28-1.34.42-2.33,1.04-2.98,1.87-.28.42-.69.79-1.25,1.11-.55.32-1.2.48-1.94.48-.55,0-1.1-.15-1.63-.45-.53-.3-.98-.84-1.35-1.63,1.89-.09,3.76-.5,5.61-1.21,1.85-.72,3.51-1.64,4.99-2.77,1.48-1.13,2.68-2.41,3.6-3.85.92-1.43,1.39-2.91,1.39-4.43,0-1.2-.3-2.26-.9-3.19-.6-.92-1.43-1.7-2.49-2.32-1.06-.62-2.3-1.08-3.71-1.39-1.41-.3-2.94-.45-4.61-.45-2.22,0-4.42.31-6.62.94-2.19.62-4.15,1.64-5.85,3.05-1.71,1.41-3.1,3.26-4.16,5.54-1.06,2.29-1.59,5.07-1.59,8.35,0,2.82.4,5.35,1.21,7.59.81,2.24,1.95,4.16,3.43,5.75,1.48,1.59,3.27,2.82,5.37,3.67ZM113.14,44.38c.67-.51,1.28-.76,1.84-.76.32,0,.65.07.97.21.32.14.48.44.48.9s-.35.94-1.04,1.42c-.69.49-1.92.82-3.67,1,.28-1.34.75-2.26,1.42-2.77Z"/>
        <path class="cls-1" d="M137.7,64.02c1.48,1.59,3.27,2.82,5.37,3.67,2.1.86,4.44,1.28,7.03,1.28,1.8,0,3.61-.23,5.44-.69,1.82-.46,3.46-1.18,4.92-2.15,1.46-.97,2.63-2.23,3.53-3.78.9-1.55,1.35-3.38,1.35-5.51,0-1.94-.38-3.38-1.14-4.33-.76-.95-1.93-1.53-3.5-1.77-1.43-.23-2.82-.14-4.16.28-1.34.42-2.33,1.04-2.98,1.87-.28.42-.69.79-1.25,1.11-.55.32-1.2.48-1.94.48-.55,0-1.1-.15-1.63-.45-.53-.3-.98-.84-1.35-1.63,1.89-.09,3.76-.5,5.61-1.21,1.85-.72,3.51-1.64,4.99-2.77,1.48-1.13,2.68-2.41,3.6-3.85.92-1.43,1.39-2.91,1.39-4.43,0-1.2-.3-2.26-.9-3.19-.6-.92-1.43-1.7-2.49-2.32-1.06-.62-2.3-1.08-3.71-1.39-1.41-.3-2.94-.45-4.61-.45-2.22,0-4.42.31-6.62.94-2.19.62-4.15,1.64-5.85,3.05-1.71,1.41-3.1,3.26-4.16,5.54-1.06,2.29-1.59,5.07-1.59,8.35,0,2.82.4,5.35,1.21,7.59.81,2.24,1.95,4.16,3.43,5.75ZM148.34,44.38c.67-.51,1.28-.76,1.84-.76.32,0,.65.07.97.21.32.14.49.44.49.9s-.35.94-1.04,1.42c-.69.49-1.92.82-3.67,1,.28-1.34.75-2.26,1.42-2.77Z"/>
        <path class="cls-1" d="M213.66,74.07c-.9-1.41-1.93-2.67-3.08-3.78-.83-.83-1.82-1.71-2.98-2.63-1.16-.92-2.36-1.86-3.6-2.81-1.25-.95-2.47-1.87-3.67-2.77-1.2-.9-2.29-1.77-3.26-2.6-.65-.55-.53-.99.35-1.32,2.26-.92,4.5-1.93,6.72-3.01,2.22-1.08,3.99-2.32,5.33-3.71.23-.28.67-.83,1.32-1.66.65-.83,1.15-1.84,1.52-3.01.37-1.18.4-2.45.1-3.81-.3-1.36-1.31-2.71-3.01-4.05-1.57-1.25-3.09-1.87-4.57-1.87-1.11,0-2.15.31-3.12.94-.97.62-1.89,1.41-2.77,2.36-.88.95-1.71,2-2.49,3.15-.79,1.16-1.55,2.26-2.29,3.33-.42.55-.95,1.27-1.59,2.15-.65.88-1.43,1.78-2.36,2.7-.6.6-.9.44-.9-.49v-.28l.07-.48v-.28c.09-1.2.15-2.55.17-4.05.02-1.5-.17-2.92-.59-4.26-.42-1.34-1.18-2.47-2.29-3.39-1.11-.92-2.75-1.39-4.92-1.39s-3.85.48-4.88,1.45c-1.04.97-1.73,2.19-2.08,3.67-.35,1.48-.47,3.08-.38,4.82.09,1.73.18,3.38.28,4.95.23,3.09.24,6.69.03,10.77-.21,4.09-.64,8.46-1.28,13.13-.09.69-.2,1.47-.31,2.32-.12.86-.15,1.72-.1,2.6.05.88.21,1.72.48,2.53.28.81.73,1.54,1.35,2.18.62.65,1.48,1.17,2.56,1.56,1.08.39,2.46.59,4.12.59,2.49,0,4.4-.43,5.72-1.28,1.32-.85,2.24-1.96,2.77-3.33.53-1.36.77-2.91.73-4.64-.05-1.73-.21-3.47-.48-5.23-.14-.97-.27-1.96-.38-2.98-.12-1.02-.22-2.05-.31-3.12-.05-.42-.02-.63.07-.66.09-.02.23.15.42.52.55,1.11,1.11,2.26,1.66,3.46.55,1.2,1.11,2.37,1.66,3.5.55,1.13,1.1,2.21,1.63,3.22.53,1.02,1,1.87,1.42,2.56.46.79.96,1.66,1.49,2.63.53.97,1.13,1.87,1.8,2.7.67.83,1.46,1.52,2.36,2.08.9.55,1.95.83,3.15.83,1.39,0,2.98-.46,4.78-1.39,2.17-1.11,3.64-2.37,4.4-3.78.76-1.41,1.05-2.85.87-4.33-.18-1.48-.73-2.92-1.63-4.33Z"/>
        <path class="cls-1" d="M255.23,52.7c-1.27-3.51-2.89-6.41-4.85-8.7-1.96-2.29-4.11-3.98-6.44-5.09-2.33-1.11-4.58-1.66-6.75-1.66s-4.37.55-6.72,1.66c-2.36,1.11-4.53,2.78-6.51,5.02-1.99,2.24-3.61,5.09-4.88,8.56-1.27,3.46-1.91,7.55-1.91,12.26,0,4.06.51,7.55,1.52,10.46,1.02,2.91,2.43,5.3,4.23,7.17,1.8,1.87,3.95,3.25,6.44,4.12,2.49.88,5.24,1.32,8.25,1.32s5.7-.44,8.11-1.32c2.4-.88,4.46-2.24,6.17-4.09,1.71-1.85,3.01-4.19,3.91-7.03.9-2.84,1.35-6.22,1.35-10.15,0-4.85-.64-9.03-1.91-12.54ZM240.93,66.56c-.23,1.29-.52,2.29-.87,2.98-.35.69-.75,1.14-1.21,1.35-.46.21-.92.31-1.39.31-.51,0-1.03-.11-1.56-.35-.53-.23-1-.72-1.42-1.45-.42-.74-.76-1.8-1.04-3.19-.28-1.39-.42-3.21-.42-5.47s.14-4.26.42-5.85.62-2.89,1.04-3.88c.42-.99.87-1.72,1.35-2.18.48-.46.94-.69,1.35-.69s.87.23,1.35.69c.48.46.92,1.22,1.32,2.29.39,1.06.73,2.43,1,4.09.28,1.66.42,3.72.42,6.17,0,2.17-.12,3.9-.35,5.2Z"/>
        <path class="cls-1" d="M164.6,74.3c-6.27-4.88-15.15-.27-22.54.65-18.62,2.32-24.64-.98-36.86-1.99-6.82-.37-6.7,7.51-4.12,11.87,6.33,11.99,20.86,17.6,33.89,17.38,12.98.03,29.73-6.14,31.84-20.62.2-2.46.16-5.44-2.21-7.28ZM131.49,99.87c-29.31-2.71,11.52-16.36,22.31-11.6,13.62,6.01-12.35,12.52-22.31,11.6Z"/>
      </g>
      <path class="cls-1" d="M265.05,11.84l2.87,6.73c1.65,3.85,4.68,6.94,8.5,8.66l6.67,3c1.22.55,1.21,2.29-.03,2.81l-6.73,2.87c-3.85,1.65-6.94,4.68-8.66,8.5l-3,6.67c-.55,1.22-2.29,1.21-2.81-.03l-2.87-6.73c-1.65-3.85-4.68-6.94-8.5-8.66l-6.67-3c-1.22-.55-1.21-2.29.03-2.81l6.73-2.87c3.85-1.65,6.94-4.68,8.66-8.5l3-6.67c.55-1.22,2.29-1.21,2.81.03Z"/>
      <g>
        <path class="cls-2" d="M259.53,25.94c.19-.49.53-.66,1.06-.66h.52c.49,0,.93.12,1.16.79l2.62,7.29c.08.21.21.6.21.83,0,.53-.46.95-1.02.95-.48,0-.82-.17-.98-.6l-.56-1.59h-3.49l-.57,1.59c-.15.42-.45.6-.97.6-.6,0-1.01-.37-1.01-.95,0-.24.13-.62.21-.83l2.81-7.42ZM260.84,27.64h-.03l-1.28,3.82h2.54l-1.23-3.82Z"/>
        <path class="cls-2" d="M266.22,26.37c0-.65.42-1.08,1.08-1.08s1.09.44,1.09,1.08v7.7c0,.65-.42,1.08-1.09,1.08s-1.08-.44-1.08-1.08v-7.7Z"/>
      </g>
    </g>
  </g>
</svg>